<svg width="28" height="28" viewBox="0 0 28 28" fill="none" xmlns="http://www.w3.org/2000/svg">
    <rect id="background" width="28" height="28" fill="white"/>
<path id="folder-Fill" d="M9 10H9.94478L12.5539 13.1288H19V17H9V10Z" fill="#828282"/>
<path id="folder" fill-rule="evenodd" clip-rule="evenodd" d="M7.6 18.1402C7.6 18.3222 7.7792 18.4706 8 18.4706H20C20.2208 18.4706 20.4 18.3222 20.4 18.1402V11.5714C20.4 11.3886 20.2208 11.2411 20 11.2411H14C13.76 11.2411 13.5328 11.1378 13.3808 10.9596L11.3008 8.52941H8C7.7792 8.52941 7.6 8.677 7.6 8.859V18.1402ZM20 20H8C6.8976 20 6 19.1657 6 18.1402V8.859C6 7.83353 6.8976 7 8 7H11.6808C11.92 7 12.148 7.10247 12.3 7.28065L14.3792 9.71165H20C21.1024 9.71165 22 10.5452 22 11.5714V18.1402C22 19.1657 21.1024 20 20 20Z" fill="#828282"/>
</svg>
