<svg xmlns="http://www.w3.org/2000/svg" width="42" height="42" fill="none" class="dragableIcon" viewBox="0 0 42 42">
    <path id="outer" fill="transparent" stroke="var(--icon-stroke)" stroke-width="6" d="M4 21C4 11.6112 11.6112 4.00001 21 4.00001C30.3888 4.00001 38 11.6112 38 21C38 30.3888 30.3888 38 21 38C11.6112 38 4 30.3888 4 21Z"/>
    <path id="inner" fill="var(--icon-background)" stroke="white" stroke-width="3" d="M4 21C4 11.6112 11.6112 4.00001 21 4.00001C30.3888 4.00001 38 11.6112 38 21C38 30.3888 30.3888 38 21 38C11.6112 38 4 30.3888 4 21Z"/>
    <g id="drag-icon">
        <path fill="var(--icon)" d="M19 13.5333C19 12.4288 19.8954 11.5333 21 11.5333C22.1046 11.5333 23 12.4288 23 13.5333C23 14.6379 22.1046 15.5333 21 15.5333C19.8954 15.5333 19 14.6379 19 13.5333Z" class="circle"/>
        <path fill="var(--icon)" d="M19 29C19 27.8954 19.8954 27 21 27C22.1046 27 23 27.8954 23 29C23 30.1046 22.1046 31 21 31C19.8954 31 19 30.1046 19 29Z" class="circle"/>
        <path fill="var(--icon)" d="M19 21.2667C19 20.1621 19.8954 19.2667 21 19.2667C22.1046 19.2667 23 20.1621 23 21.2667C23 22.3712 22.1046 23.2667 21 23.2667C19.8954 23.2667 19 22.3712 19 21.2667Z" class="circle"/>
    </g>
</svg>
