<?xml version="1.0" encoding="UTF-8" standalone="no"?>
<svg
   xmlns:dc="http://purl.org/dc/elements/1.1/"
   xmlns:cc="http://creativecommons.org/ns#"
   xmlns:rdf="http://www.w3.org/1999/02/22-rdf-syntax-ns#"
   xmlns:svg="http://www.w3.org/2000/svg"
   xmlns="http://www.w3.org/2000/svg"
   style="font-style:normal;font-weight:normal;font-family:Dialog;color-interpolation:auto;fill:#000000;fill-opacity:1;stroke:#000000;stroke-width:1;stroke-linecap:square;stroke-linejoin:miter;stroke-miterlimit:10;stroke-dasharray:none;stroke-dashoffset:0;stroke-opacity:1;color-rendering:auto;image-rendering:auto;shape-rendering:auto;text-rendering:auto"
   height="40.311089"
   width="40.38065"
   id="svg9"
   version="1.1"
   font-style="normal"
   font-weight="normal"
   stroke-miterlimit="10">
  <metadata
     id="metadata13">
    <rdf:RDF>
      <cc:Work
         rdf:about="">
        <dc:format>image/svg+xml</dc:format>
        <dc:type
           rdf:resource="http://purl.org/dc/dcmitype/StillImage" />
        <dc:title></dc:title>
      </cc:Work>
    </rdf:RDF>
  </metadata>
  <!--Unicode Character 'RIGHT-FACING ARMENIAN ETERNITY SIGN' (U+058D)-->
  <defs
     id="genericDefs" />
  <g
     transform="matrix(0.24728362,0,0,0.24728362,-0.28590932,-54.406575)"
     id="g7">
    <g
       id="g5">
      <path
         style="stroke:none"
         id="path3"
         d="m 85.25,317.3763 q -5.1875,13.2344 -16.2734,20.4375 -11.086,7.2031 -24.0547,7.2031 -10.0781,0 -19,-4.3281 4.6093,9.7969 12.8125,15.2734 8.2031,5.4766 17.4218,5.4766 6.0469,0 11.8126,-2.7422 5.7656,-2.7422 10.3671,-7.0625 4.6016,-4.3203 7.3438,-9.7891 2.7422,-5.4687 2.7422,-10.6562 0,-3.4531 -0.8672,-6.9063 -0.8672,-3.4531 -2.3047,-6.9062 z m -9.5,-6.0625 q -11.5312,5.7656 -22.4688,5.7656 -12.6718,0 -23.1874,-7.0547 -10.5157,-7.0547 -15.6876,-20.5859 -2.3124,6.0469 -2.3124,12.0937 0,6.9063 2.5937,12.8125 2.5937,5.9063 7.0547,10.2266 4.4609,4.3203 10.3672,6.9141 5.9062,2.5937 12.5312,2.5937 10.9375,0 19.4375,-6.3359 8.5,-6.336 11.6719,-16.4297 z m 39.7344,28.2344 q 0,-10.9532 -6.4766,-19.4454 -6.4766,-8.4921 -16.5547,-11.664 3.1563,5.7656 4.4531,11.3828 1.2969,5.6172 1.2969,11.3672 0,12.6719 -6.9062,23.1875 -6.9063,10.5156 -20.4531,15.4062 6.0468,2.3125 12.0937,2.3125 6.0469,0 9.9375,-1.7343 3.8906,-1.7344 6.4844,-3.6016 2.5937,-1.8672 4.3203,-3.5938 1.7265,-1.7265 3.4609,-1.7265 8.3438,-9.2188 8.3438,-21.8906 z M 66.8125,304.1263 q -13.25,-5.1875 -20.4453,-16.2735 -7.1953,-11.0859 -7.1953,-24.0546 0,-9.7969 4.3125,-19.2969 -9.7813,4.6094 -15.2578,12.9609 -5.4766,8.3516 -5.4766,17.5703 0,6.3438 2.8828,12.1016 2.8828,5.7578 7.2031,10.2187 4.3203,4.461 9.7891,7.1954 5.4688,2.7343 10.6562,2.7343 6.3282,0 13.5313,-3.1562 z m 65.9531,1.1406 q -5.1875,-5.1719 -10.3672,-7.3359 -5.1796,-2.1641 -10.0859,-2.1641 -3.4531,0 -6.7656,0.8672 -3.3125,0.8672 -6.7657,2.3047 12.9688,5.1875 20.3126,16.414 7.3437,11.2266 7.3437,24.1954 0,10.0781 -4.3281,19 9.7968,-4.6094 15.125,-12.961 5.3281,-8.3515 5.3281,-17.5703 0,-5.75 -2.3047,-11.6562 -2.3047,-5.9063 -7.4922,-11.0938 z m -38.0156,-72 Q 88.7031,230.97 82.9375,230.97 q -6.9063,0 -12.9531,2.5938 -6.0469,2.5937 -10.3672,6.914 -4.3203,4.3204 -6.9141,10.2188 -2.5937,5.8984 -2.5937,12.8203 0,10.9375 6.4844,19.4375 6.4843,8.5 16.5624,11.6563 -6.0468,-11.2188 -6.0468,-22.75 0,-12.6719 7.0547,-23.0391 7.0547,-10.3672 20.5859,-15.5547 z m 58.75,68.2656 q 0,-6.625 -2.5938,-12.5312 -2.5937,-5.9063 -6.9062,-10.3672 -4.3125,-4.4609 -10.2188,-7.0547 -5.9062,-2.5937 -12.8281,-2.5937 -10.9375,0 -19.4297,6.3359 -8.4922,6.3359 -11.664,16.4141 10.9375,-5.7657 22.1718,-5.7657 12.9532,0 23.4688,7.0625 10.5156,7.0625 15.7031,20.5938 2.2969,-6.0469 2.2969,-12.0938 z m -13.8125,-39.1718 q -4.6094,-9.7969 -12.8203,-15.2657 -8.211,-5.4687 -17.4297,-5.4687 -6.0469,0 -11.9531,2.7344 -5.9063,2.7343 -10.3672,7.1953 -4.461,4.4609 -7.1953,9.789 -2.7344,5.3282 -2.7344,10.5157 0,6.625 3.1719,13.8281 5.1718,-12.9531 16.2656,-20.2969 11.0938,-7.3437 24.0469,-7.3437 9.7969,0 19.0156,4.3125 z m 24.7656,39.1718 q 0,16.7032 -10.9531,28.5157 -0.5781,8.0625 -4.1719,15.5468 -3.5937,7.4844 -9.3593,13.2422 -5.7657,5.7578 -13.1094,9.3594 -7.3438,3.6016 -15.4063,4.1797 -5.75,4.8906 -12.9531,7.7734 -7.2031,2.8828 -15.5625,2.8828 -8.3437,0 -15.6875,-2.8828 -7.3438,-2.8828 -13.1094,-7.7734 -8.0625,-0.5781 -15.4062,-4.1797 -7.3438,-3.6016 -13.1016,-9.3594 -5.7578,-5.7578 -9.3594,-13.2422 -3.6015,-7.4843 -4.1796,-15.5468 -10.9376,-11.8125 -10.9376,-28.5157 0,-8.3593 2.875,-15.5547 2.875,-7.1953 8.0626,-12.9609 0.5781,-8.0625 4.1796,-15.5547 3.6016,-7.4922 9.3594,-13.25 5.7578,-5.7578 13.1016,-9.3594 7.3437,-3.6015 15.4062,-4.1796 5.7656,-4.8907 13.1094,-7.7735 7.3438,-2.8828 15.6875,-2.8828 8.3594,0 15.5625,2.8828 7.2031,2.8828 12.9531,7.7735 8.0625,0.5781 15.4063,4.1796 7.3437,3.6016 13.1094,9.3594 5.7656,5.7578 9.3593,13.25 3.5938,7.4922 4.1719,15.5547 10.9531,11.8125 10.9531,28.5156 z" />
    </g>
  </g>
</svg>
