<svg width="149" height="62" viewBox="0 0 149 62" fill="none" xmlns="http://www.w3.org/2000/svg">
<path id="a-1" d="M133.775 52.5307V44.6453H121.908C121.361 45.3293 120.975 46.012 120.751 46.692C120.52 47.3747 120.407 48.1253 120.407 48.9427C120.407 50.536 120.84 51.8867 121.704 53C122.567 54.1173 124.245 55.0213 125.655 55.0213C128.339 55.0213 130.683 54.94 133.775 52.5307ZM148.776 60.468H133.775V56.0093L120.693 61.0347C120.693 61.0347 119.896 61.0213 118.736 60.7587C116.705 60.3 115.127 59.4427 113.997 58.184C112.225 56.204 111.336 53.8093 111.336 50.9893C111.336 49.352 111.904 47.7267 113.043 46.1133C114.179 44.5 115.839 42.9667 118.02 41.5093H133.775V37.828C133.775 32.508 130.932 29.8493 125.251 29.8493C123.536 29.8493 119.756 31.224 116.996 32.328L111.108 30.0827L128.772 23.3613C133.089 23.3613 136.672 24.484 139.059 26.576C141.445 28.6667 142.639 31.6893 142.639 35.6427V55.7133L148.776 58.0973V60.468" fill="#1A1A1A"/>
<path id="t" d="M101.913 60.536H80.8387V58.0814L86.908 55.8107V10.3187L80.8387 7.95734V5.50137L92.8427 0.933374H95.772V55.7134L101.913 58.0974V60.536" fill="#1A1A1A"/>
<path  id="l" d="M59.4531 61.0227C56.7057 60.696 54.6208 59.748 53.2005 58.184C51.4036 56.204 50.5068 53.148 50.5068 49.0107V23.2347H43.1417V19.848L56.4417 14.6907H59.3708V20.0947H71.6493V23.2347H59.3708V49.5573C59.3708 53.148 61.1473 54.9453 64.6917 54.9453C65.6459 54.9453 68.3557 54.6707 71.1224 52.8493L73.228 55.792C73.228 55.792 61.4541 60.272 59.4531 61.0227" fill="#1A1A1A"/>
<path  id="a-2" d="M23.6208 52.5307V44.6453H11.7552C11.2084 45.3293 10.8213 46.012 10.5973 46.692C10.3672 47.3747 10.2536 48.1253 10.2536 48.9427C10.2536 50.536 10.6875 51.8867 11.5521 53C12.414 54.1173 14.0921 55.0213 15.5027 55.0213C18.186 55.0213 20.5287 54.94 23.6208 52.5307ZM38.624 60.468H23.6208V56.0093L10.5407 61.0347C10.5407 61.0347 9.7432 61.0213 8.58333 60.7587C6.55213 60.3 4.97293 59.4427 3.84533 58.184C2.07293 56.204 1.18387 53.8093 1.18387 50.9893C1.18387 49.352 1.7516 47.7267 2.89067 46.1133C4.026 44.5 5.686 42.9667 7.8672 41.5093H23.6208V37.828C23.6208 32.508 20.7787 29.8493 15.0964 29.8493C13.3828 29.8493 9.60413 31.224 6.84213 32.328L0.955734 30.0827L18.6188 23.3613C22.9375 23.3613 26.5183 24.484 28.9063 26.576C31.2927 28.6667 32.486 31.6893 32.486 35.6427V55.7133L38.624 58.0973V60.468" fill="#1A1A1A"/>
</svg>
